
<svg width="600" height="247" viewBox="0 0 600 247" xmlns="http://www.w3.org/2000/svg"> <g> <path d="M454.805 1.352c-2.909.155-4.576 1.912-4.649 4.413l-5.726 212.021L364.743 4.297a4.552 4.552 0 0 0-4.168-2.945c-1.958-.172-3.562 1.079-4.268 2.8l-97.085 234.73c-.952 2.31.145 4.965 2.455 5.917a4.526 4.526 0 0 0 5.918-2.456l92.69-224.082 83.8 224.508a4.525 4.525 0 0 0 4.25 2.945c.245 0 .49-.01.743-.055a4.541 4.541 0 0 0 3.788-4.35L459.218 6.01a4.548 4.548 0 0 0-4.413-4.658zm-126.263.98a4.523 4.523 0 0 0-5.98 2.283l-51.044 113.93-51.36-114.8a4.525 4.525 0 0 0-5.98-2.284c-2.284 1.024-3.317 3.706-2.293 5.99l54.668 122.185-48.887 109.128c-1.015 2.283 0 4.965 2.283 5.98a4.542 4.542 0 0 0 5.999-2.283L330.826 8.32a4.53 4.53 0 0 0-2.284-5.99zM488.08 231.758l-.535-221.635c17.86-.843 88.295-.725 101.724 52.158 15.024 59.144-74.376 145.274-101.19 169.477zm109.97-171.706C580.814-7.8 483.53 1.27 482.542 1.38a4.517 4.517 0 0 0-4.068 4.512l.57 235.889a4.512 4.512 0 0 0 2.62 4.096c.615.28 1.268.426 1.911.426a4.555 4.555 0 0 0 2.918-1.06c5.328-4.477 130.504-110.623 111.556-185.19zM69.945 97.776C38.321 81.003 11.01 66.514 17.615 37.57c6.86-30.066 51.65-26.341 52.086-26.305 2.537.272 4.694-1.613 4.92-4.096a4.525 4.525 0 0 0-4.087-4.93C52.203.565 15.676 5.304 8.78 35.56.634 71.262 33.708 88.814 65.696 105.786c37.732 20.017 76.75 40.713 63.031 91.086-3.552 13.058-11.263 23.053-22.925 29.695-36.346 20.732-99.441 3.787-100.066 3.597-2.429-.643-4.912.761-5.573 3.163a4.544 4.544 0 0 0 3.162 5.582c1.668.444 26.306 7.095 54.279 7.095 17.914 0 37.197-2.728 52.674-11.554 13.837-7.892 22.98-19.727 27.194-35.185 15.622-57.369-28.562-80.802-67.527-101.49zm67.418.544l50.264-90.525c1.214-2.184.426-4.947-1.758-6.153-2.184-1.232-4.948-.425-6.162 1.758L128.274 96.01a4.559 4.559 0 0 0-.09 4.24l71.658 142.402a4.538 4.538 0 0 0 4.05 2.492c.689 0 1.387-.145 2.04-.49 2.228-1.123 3.134-3.842 2.01-6.07L137.363 98.32z" id="skynd-logo" fill="#FFF"></path> </g> </svg>